<svg xmlns="http://www.w3.org/2000/svg" width="32" height="32"><path d="M29.952 26.88v-5.728c0-.288-.256-.512-.544-.512H16.512v-3.104c4.608-.288 8.256-4.096 8.256-8.768C24.768 3.936 20.832 0 16 0S7.232 3.936 7.232 8.768a8.743 8.743 0 0 0 8.256 8.736v3.136H2.592a.505.505 0 0 0-.512.512v5.728C.896 27.136 0 28.16 0 29.408 0 30.848 1.152 32 2.592 32s2.56-1.152 2.56-2.592a2.574 2.574 0 0 0-2.048-2.528v-5.216h12.384v5.216c-1.184.256-2.08 1.28-2.08 2.528C13.408 30.848 14.592 32 16 32s2.592-1.152 2.592-2.592c0-1.248-.896-2.272-2.08-2.528v-5.216h12.384v5.216c-1.152.256-2.048 1.28-2.048 2.528A2.581 2.581 0 0 0 29.44 32c1.408 0 2.56-1.152 2.56-2.592 0-1.248-.896-2.272-2.048-2.528zM4.128 29.408c0 .864-.704 1.568-1.536 1.568s-1.568-.704-1.568-1.568c0-.832.704-1.536 1.568-1.536s1.536.704 1.536 1.536zm13.408 0c0 .864-.672 1.568-1.536 1.568s-1.536-.704-1.536-1.568a1.536 1.536 0 0 1 3.072 0zM16 16.512c-4.256 0-7.744-3.456-7.744-7.744 0-4.256 3.488-7.744 7.744-7.744s7.744 3.488 7.744 7.744c0 4.288-3.488 7.744-7.744 7.744zm13.408 14.464c-.832 0-1.536-.704-1.536-1.568 0-.832.704-1.536 1.536-1.536s1.568.704 1.568 1.536a1.57 1.57 0 0 1-1.568 1.568zM16 2.048c-3.712 0-6.72 3.04-6.72 6.72 0 3.712 3.008 6.72 6.72 6.72s6.72-3.008 6.72-6.72c0-3.68-3.008-6.72-6.72-6.72zm0 12.928c-3.424 0-6.176-2.784-6.176-6.208S12.576 2.592 16 2.592s6.208 2.752 6.208 6.176A6.214 6.214 0 0 1 16 14.976zm.512-6.72V5.664c.576 0 1.024.48 1.024 1.056 0 .288.256.512.544.512s.512-.224.512-.512c0-1.152-.928-2.08-2.08-2.08v-.512c0-.288-.224-.512-.512-.512s-.512.224-.512.512v.512c-1.152 0-2.08.928-2.08 2.08v.512c0 1.12.928 2.048 2.08 2.048v2.592c-.576 0-1.024-.48-1.024-1.024a.526.526 0 0 0-.512-.512c-.288 0-.544.224-.544.512 0 1.12.928 2.048 2.08 2.048v.512c0 .288.224.512.512.512s.512-.224.512-.512v-.512c1.152 0 2.08-.928 2.08-2.048v-.512c0-1.152-.928-2.08-2.08-2.08zm-1.024 0a1.01 1.01 0 0 1-1.024-1.024V6.72c0-.576.448-1.056 1.024-1.056v2.592zm2.048 2.592c0 .544-.448 1.024-1.024 1.024V9.28c.576 0 1.024.48 1.024 1.056v.512z"/></svg>