<svg xmlns="http://www.w3.org/2000/svg" width="32" height="32"><path d="M29.984 5.888c-.192-.192-.512-.192-.736 0l-3.456 3.456-5.024-5.024L24.224.864a.453.453 0 0 0 0-.704.453.453 0 0 0-.704 0l-3.456 3.456-2.528-2.496v-.032a.502.502 0 0 0-.704 0l-5.28 5.28C10.048 7.872 9.28 9.92 9.376 12.16a8.734 8.734 0 0 0 1.12 3.872l-2.784 2.784a.502.502 0 0 0 0 .704L8.8 20.608l-5.856 5.856c-.608.608-.928 1.408-.928 2.272s.32 1.664.928 2.272c1.216 1.216 3.328 1.216 4.544 0l4.32-4.32c.576-.576 1.536-.576 2.144 0a1.586 1.586 0 0 1 0 2.176l-2.272 2.272a.502.502 0 0 0 0 .704c.096.096.224.16.352.16s.256-.064.352-.16l2.272-2.272c.992-.992.992-2.592 0-3.584s-2.592-.992-3.584 0l-4.288 4.32c-.832.832-2.304.832-3.136 0-.416-.416-.64-.992-.64-1.568s.224-1.152.64-1.568l5.888-5.856 1.056 1.088c.096.096.224.128.352.128s.256-.032.384-.128l2.752-2.752a9.142 9.142 0 0 0 3.904 1.088c.128 0 .224.032.352.032 2.08 0 4-.768 5.408-2.208l5.28-5.248c.096-.096.128-.224.128-.384s-.032-.256-.128-.352l-2.528-2.496 3.488-3.488a.502.502 0 0 0 0-.704zm-19.04 15.424L8.8 19.168l2.24-2.24c.288.416.64.8.992 1.152.352.384.768.704 1.184.992l-2.272 2.24zm16.992-8.352l-4.896 4.896c-1.312 1.28-3.072 1.984-5.024 1.888s-3.84-.928-5.28-2.368c-1.408-1.44-2.272-3.296-2.336-5.28-.096-1.92.576-3.712 1.856-5.024l4.928-4.896L27.936 12.96zM16.832 5.664l7.648 7.648c.096.096.224.128.352.128s.256-.032.352-.128c.192-.192.192-.512 0-.736l-7.648-7.648a.502.502 0 0 0-.704 0c-.224.192-.224.512 0 .736zm-.128 5.216c-1.408 0-2.528 1.152-2.528 2.56 0 1.376 1.12 2.528 2.528 2.528s2.528-1.152 2.528-2.528c0-1.408-1.12-2.56-2.528-2.56zm0 4.064c-.832 0-1.536-.672-1.536-1.504 0-.864.704-1.536 1.536-1.536s1.504.672 1.504 1.536c0 .832-.672 1.504-1.504 1.504z"/></svg>