<svg width="16" height="16" xmlns="http://www.w3.org/2000/svg"><path d="M13.93 11.927l-3.897-1.518c-.533-.164-.615-.45-.574-1.107 0 0 1.887-2.093 1.887-3.693 0-.574-.082-1.107-.287-1.6 0-.369 0-.615-.04-.615s-.82-1.313-.82-1.64c0-.329-1.315-1.027-1.643-1.23-.328-.207-.574-.494-.82 0-.247.491-.862-.166-1.64.82-.78.983-1.232 2.05-1.232 3.691h.04v.574c0 1.6 1.806 3.652 1.806 3.652.041.656-.164.943-.697 1.066l-3.98 1.6c-.533.247-1.64 1.067-1.64 1.641 0 1.19 1.148 2.175 2.173 2.175h10.831c1.805 0 2.174-2.175 2.174-2.175 0-.533-1.066-1.27-1.64-1.64z"/></svg>