<svg xmlns="http://www.w3.org/2000/svg" width="32" height="32"><path d="M3.584 12.672h5.92V6.496h-5.92v6.176zm1.088-5.024h3.744v3.904H4.672V7.648zm12.8-1.152H11.52v6.176h5.952V6.496zm-1.088 5.056H12.64V7.648h3.744v3.904zm-7.968 8h1.088v1.12H8.416zm-2.496 0h1.248v1.12H5.92zm-2.336 0h1.088v1.12H3.584zm0-2.624h1.088v1.312H3.584zm0-2.432h1.088v1.152H3.584zm2.336 0h1.248v1.152H5.92zm2.496 0h1.088v1.152H8.416zm0 2.432h1.088v1.312H8.416zm17.024-2.432h-5.952v6.176h5.952v-6.176zm-1.088 5.056h-3.776v-3.904h3.776v3.904zm-6.88-5.056H11.52v6.176h5.952v-6.176zm-1.088 5.056h-3.776v-3.904h3.776v3.904zm13.12 5.824h-6.496v-1.888h6.464V2.048H25.44V.608h-2.432v-1.12H21.92v1.12h-2.432v1.44h-2.016V.608H15.04v-1.12h-1.088v1.12H11.52v1.44H9.504V.608H7.072v-1.12H5.984v1.12h-2.4v1.44H-.48v21.44h6.464v1.888H-.512v1.12h13.088v4.992h1.088v-4.992h1.664v4.992h1.12v-4.992h13.056v-1.12zM20.576 1.76h3.776v1.728h-3.776V1.76zm-7.936 0h3.744v1.728H12.64V1.76zm-7.968 0h3.744v1.728H4.672V1.76zM.64 3.2h2.944v1.44h5.92V3.2h2.016v1.44h5.952V3.2h2.016v1.44h5.952V3.2h2.944v19.168H.64V3.2zm6.432 22.176v-1.888h5.504v1.888H7.072zm6.592 0v-1.888h1.664v1.888h-1.664zm2.784-1.888h5.472v1.888h-5.472v-1.888zm7.904-11.936h1.088v1.12h-1.088zm-2.528 0h1.248v1.12h-1.248zm-2.336 0h1.088v1.12h-1.088zm0-2.624h1.088v1.312h-1.088zm0-2.432h1.088v1.152h-1.088zm2.336 0h1.248v1.152h-1.248zm2.528 0h1.088v1.152h-1.088zm0 2.432h1.088v1.312h-1.088z"/></svg>