<svg width="17" height="16" xmlns="http://www.w3.org/2000/svg"><path d="M15.46 11.333h-3.864v3.333h3.862l.002-3.333zm0-1.333V6.667H1.408V10H5.27V6.667h1.405V10h3.514V6.667h1.406V10h3.864zM1.406 11.333v3.331l3.865.002v-3.333H1.406zm5.27 0v3.333h3.514v-3.333H6.676zM14.056 2h1.402c.778 0 1.409.597 1.409 1.336v11.328c0 .738-.63 1.336-1.41 1.336H1.41C.631 16 0 15.403 0 14.664V3.336C0 2.598.63 2 1.409 2h1.402V.667c0-.369.312-.667.703-.667.388 0 .703.296.703.667V2h8.433V.667c0-.369.312-.667.703-.667.388 0 .703.296.703.667V2zM1.407 5.333h14.054V3.336c0-.002-14.052-.003-14.052-.003l-.002 2z"/></svg>