<svg xmlns="http://www.w3.org/2000/svg" width="23" height="32"><path d="M21.216 9.792L16 15.008v14.72q0 .8-.576 1.408t-1.408.576-1.44-.576T12 29.728v-6.88h-1.152v6.88q0 .8-.576 1.408t-1.408.576-1.408-.576-.608-1.408v-14.72L1.632 9.792q-.48-.512-.48-1.216t.48-1.216q.544-.512 1.248-.512t1.184.512l4.096 4.064h6.56l4.064-4.064q.512-.512 1.216-.512t1.216.512.512 1.216-.512 1.216zm-5.792-2.944q0 1.664-1.152 2.848t-2.848 1.152-2.816-1.152-1.184-2.848 1.184-2.816 2.816-1.184 2.848 1.184 1.152 2.816z"/></svg>