<svg width="16" height="16" xmlns="http://www.w3.org/2000/svg"><path fill-rule="evenodd" d="M8.584 4.941h-.705V1.804L9.063 2a.58.58 0 0 0 .698-.588V.705A.705.705 0 0 0 9.056 0H7.41a.47.47 0 0 0-.473.472v4.469h-.94v-3.06a.47.47 0 0 0-.47-.47H4.116a.707.707 0 0 0-.708.708v.47c0 .391.31.65.694.58l.953-.173V4.94h-.706a.47.47 0 0 0-.47.47v1.413h6.588V5.412a.47.47 0 0 0-.47-.47h-.471v-.77l1.184.214A.377.377 0 0 0 11.173 4v-.942a.47.47 0 0 0-.47-.47h-1.65a.47.47 0 0 0-.47.47v1.883zm1.805 10.111A1.41 1.41 0 0 1 9.057 16h-3.77c-.778 0-1.41-.633-1.41-1.413V7.765h6.59v6.353h.94c.26 0 .473-.211.473-.47V8.235a.472.472 0 0 0-.473-.47h-.47a.235.235 0 0 1-.233-.238v-.466c0-.133.105-.237.234-.237h.47c.78 0 1.413.632 1.413 1.41v5.414c0 .78-.633 1.41-1.414 1.41h-.94a.474.474 0 0 1-.077-.006h-.001z"/></svg>