<svg width="16" height="16" xmlns="http://www.w3.org/2000/svg"><path d="M.384.143c.019 0 .04.002.058.005l15.256 2.826a.386.386 0 0 1 .122.046.346.346 0 0 1 .093.082.369.369 0 0 1 .087.238v12.146a.389.389 0 0 1-.11.267.357.357 0 0 1-.117.081.384.384 0 0 1-.145.024H5.598a.355.355 0 0 1-.139-.024.382.382 0 0 1-.203-.203.389.389 0 0 1-.03-.145v-2.832H3.1v2.832a.389.389 0 0 1-.11.267.381.381 0 0 1-.123.081.355.355 0 0 1-.14.024H.373a.355.355 0 0 1-.14-.024.381.381 0 0 1-.203-.203.389.389 0 0 1-.029-.145V.515c0-.05.01-.1.03-.146A.385.385 0 0 1 .115.247.368.368 0 0 1 .238.166.37.37 0 0 1 .384.143zm12.174 4.372h-1.523v1.61h1.523v-1.61zm-3.796 0H7.238v1.61h1.524v-1.61zm-3.797 0H3.442v1.61h1.523v-1.61zm7.593 4.598h-1.523v1.61h1.523v-1.61zm-3.796 0H7.238v1.61h1.524v-1.61zm-3.797 0H3.442v1.61h1.523v-1.61z" fill-rule="evenodd"/></svg>