<svg xmlns="http://www.w3.org/2000/svg" width="32" height="32"><path d="M29.536 32.512h-6.528v-22.4l.096-.128a263.888 263.888 0 0 0 5.504-8.256l.928-1.44v32.224zM24 31.488h4.512V3.712A243.71 243.71 0 0 1 24 10.432v21.056zm-4.128 1.024h-5.12V20.8l.128-.16a95.906 95.906 0 0 0 4.096-5.056l.896-1.152v18.08zm-4.128-1.024h3.136V17.344c-1.088 1.376-2.112 2.656-3.136 3.808v10.336zm-4.128 1.024H-.032l2.016-.96c2.688-1.248 5.632-3.456 8.768-6.528l.864-.832v8.32zm-7.392-1.024h6.368V26.56c-2.208 2.08-4.352 3.744-6.368 4.928z"/></svg>