<svg width="27" height="32" xmlns="http://www.w3.org/2000/svg"><path d="M23.928 11.022h-2.139c.033-1.22-.098-5.11-2.5-7.681C17.842 1.79 15.901 1 13.5 1s-4.342.791-5.79 2.34c-2.368 2.572-2.5 6.43-2.5 7.682H3.073A2.066 2.066 0 0 0 1 13.099v15.527c0 1.154.921 2.077 2.072 2.077h20.823a2.066 2.066 0 0 0 2.072-2.077V13.1c0-1.154-.92-2.077-2.04-2.077zM9.75 5.252c.888-.955 2.138-1.45 3.75-1.45s2.829.462 3.75 1.45c1.71 1.847 1.776 4.979 1.743 5.77H8.007c-.033-.791.032-3.956 1.743-5.77zM15.77 25h-4.54l1.02-4.352a2.467 2.467 0 0 1-1.217-2.11c0-1.351 1.118-2.472 2.467-2.472s2.467 1.12 2.467 2.472c0 .89-.493 1.682-1.217 2.11L15.77 25z" stroke="#010022" fill="none"/></svg>