<svg width="16" height="16" xmlns="http://www.w3.org/2000/svg"><path d="M8.146 15c-1.881 0-3.67-.733-5.047-2.063a7.107 7.107 0 0 1 0-10.085 7.227 7.227 0 0 1 3.12-1.834c.138-.046.23 0 .321.092.092.091.138.229.092.32-.597 2.247 0 4.63 1.651 6.281a6.466 6.466 0 0 0 4.543 1.88c.596 0 1.147-.092 1.743-.23.138-.045.23 0 .321.092.092.092.138.23.092.32-.321 1.193-.963 2.247-1.835 3.118A6.907 6.907 0 0 1 8.146 15zM6.036 2c-.84.31-1.548.797-2.211 1.417-2.433 2.435-2.433 6.376 0 8.768A6.229 6.229 0 0 0 8.205 14 6.229 6.229 0 0 0 14 10.015c-.398.088-.84.133-1.239.133-1.814 0-3.539-.709-4.866-1.993C6.347 6.517 5.639 4.214 6.037 2z" stroke="#000"/></svg>