<svg xmlns="http://www.w3.org/2000/svg" width="30" height="32"><path d="M25.728 8q0-.704-.512-1.216T24 6.272t-1.216.512T22.272 8t.512 1.216T24 9.728t1.216-.512T25.728 8zm4-5.152q0 4.448-1.376 7.68t-4.512 6.464q-1.44 1.408-3.488 3.136L20 26.88q-.032.288-.288.48l-6.848 4q-.128.064-.288.064-.224 0-.416-.16l-1.152-1.152q-.224-.224-.128-.544l1.504-4.96-4.992-4.992-4.928 1.504q-.064.032-.192.032-.224 0-.384-.16L.736 19.84q-.32-.352-.096-.704l4-6.848q.192-.256.48-.288l6.752-.352Q13.6 9.6 15.008 8.16q3.36-3.328 6.4-4.608t7.712-1.28q.224 0 .416.192t.192.384z"/></svg>