<svg width="16" height="16" xmlns="http://www.w3.org/2000/svg"><path d="M8 3.83C5.7 3.83 3.83 5.7 3.83 8S5.7 12.17 8 12.17 12.17 10.3 12.17 8 10.3 3.83 8 3.83zm0 7.659A3.493 3.493 0 0 1 4.511 8 3.493 3.493 0 0 1 8 4.511 3.493 3.493 0 0 1 11.489 8 3.493 3.493 0 0 1 8 11.489zM7.66.34v1.873a.34.34 0 0 0 .68 0V.34a.34.34 0 0 0-.68 0zM8 13.447a.34.34 0 0 0-.34.34v1.873a.34.34 0 0 0 .68 0v-1.873a.34.34 0 0 0-.34-.34zm7.66-5.787h-1.873a.34.34 0 0 0 0 .68h1.873a.34.34 0 0 0 0-.68zM2.553 8a.34.34 0 0 0-.34-.34H.34a.34.34 0 0 0 0 .68h1.873a.34.34 0 0 0 .34-.34zm10.643-5.677l-1.36 1.359a.34.34 0 1 0 .482.481l1.36-1.36a.34.34 0 1 0-.482-.48zm-9.514 9.514l-1.36 1.36a.34.34 0 1 0 .482.48l1.36-1.359a.34.34 0 1 0-.482-.481zm8.636 0a.34.34 0 0 0-.481.481l1.359 1.36a.34.34 0 0 0 .481 0 .34.34 0 0 0 0-.482l-1.359-1.36zM2.323 2.323a.34.34 0 0 0 0 .48l1.359 1.36a.34.34 0 0 0 .481 0 .34.34 0 0 0 0-.481l-1.359-1.36a.34.34 0 0 0-.481 0z" stroke="#000"/></svg>