<svg xmlns="http://www.w3.org/2000/svg" width="32" height="32"><path d="M31.36 2.688L29.344.64c-.192-.16-.448-.192-.64-.064l-4.768 3.36c-.128.064-.192.192-.224.352s.032.288.16.384l1.376 1.408-13.664 13.76-2.496-2.496-.704.704 1.056 1.088L.96 27.68A2.53 2.53 0 0 0 2.752 32c.672 0 1.28-.256 1.76-.736l8.512-8.544 1.056 1.056.704-.704-2.496-2.496L25.952 6.784 27.2 8.032c.096.096.224.16.352.16h.032c.16 0 .288-.096.352-.192l3.456-4.672a.486.486 0 0 0-.032-.64zM3.808 30.56c-.576.576-1.568.576-2.144 0a1.586 1.586 0 0 1 0-2.176l8.48-8.544 2.176 2.176-8.512 8.544zm23.68-23.648l-2.496-2.496 3.936-2.752 1.408 1.408-2.848 3.84zm-2.112 25.6a5.889 5.889 0 0 1-4.16-1.728c-1.632-1.632-2.144-4.032-1.376-6.208l-4.832-4.832.736-.704 5.024 5.056c.16.16.192.384.128.544-.8 1.888-.384 4 1.024 5.408 1.248 1.248 3.008 1.728 4.64 1.312l-2.176-2.304a.481.481 0 0 1-.128-.352v-2.72c0-.256.224-.48.48-.48h2.688c.128 0 .256.032.352.128l2.336 2.176a4.998 4.998 0 0 0-1.28-4.704 4.808 4.808 0 0 0-5.376-1.056.572.572 0 0 1-.544-.096l-5.024-5.088.704-.704 4.8 4.832c2.144-.768 4.512-.224 6.144 1.408 1.696 1.696 2.176 4.256 1.248 6.496-.064.128-.192.256-.352.288s-.32 0-.448-.128l-2.752-2.56h-1.984v2.016l2.592 2.72c.128.128.16.288.128.448s-.128.288-.288.352a5.95 5.95 0 0 1-2.304.48zM12.16 16.864l-4.8-4.832c-2.144.768-4.544.256-6.144-1.376A5.854 5.854 0 0 1-.032 4.224c.064-.16.192-.256.352-.288s.32 0 .448.128l2.624 2.528H5.6v-2.08l-2.592-2.72c-.096-.128-.16-.288-.128-.448s.16-.288.32-.352C5.408.032 7.84.512 9.536 2.24a5.899 5.899 0 0 1 1.376 6.176l4.832 4.864-.736.704-5.024-5.088c-.16-.128-.192-.352-.096-.544a4.984 4.984 0 0 0-1.056-5.408C7.584 1.696 5.92 1.248 4.288 1.664l2.176 2.304c.096.064.128.192.128.32v2.816c0 .256-.224.48-.48.48H3.2a.481.481 0 0 1-.352-.128L.64 5.312a4.88 4.88 0 0 0 1.28 4.64c1.408 1.44 3.52 1.824 5.376 1.024a.504.504 0 0 1 .544.128l5.024 5.056-.704.704z"/></svg>