<svg xmlns="http://www.w3.org/2000/svg" width="32" height="32"><path d="M23.936 32H13.76c-.224 0-.416-.096-.512-.288L8.16 24.096c-.576-.864-.672-1.92-.256-2.656.288-.544.8-.864 1.408-.864 1.568 0 2.784.832 4.448 3.04v.032V11.68a2.533 2.533 0 0 1 2.528-2.528c1.408 0 2.56 1.12 2.56 2.528v7.168l5.184 1.76c1.44.48 2.176 2.112 1.76 3.904l-1.248 6.976c-.064.288-.32.512-.608.512zm-9.984-.992h9.664l1.216-6.688c.288-1.312-.192-2.464-1.12-2.752l-5.888-1.984V11.68a1.536 1.536 0 0 0-3.072 0v14.976l-1.792-2.432c-1.664-2.208-2.592-2.656-3.648-2.656-.256 0-.416.128-.544.352-.192.352-.192.992.224 1.632l4.96 7.456zm11.872-17.824h-3.808c-.96 0-1.76-.768-1.76-1.76s.8-1.76 1.76-1.76h3.808c.992 0 1.792.768 1.792 1.76s-.8 1.76-1.792 1.76zm-3.808-2.528c-.416 0-.768.352-.768.768s.352.768.768.768h3.808c.416 0 .768-.352.768-.768s-.352-.768-.768-.768h-3.808zm-11.424 2.528H6.784c-.992 0-1.792-.768-1.792-1.76s.8-1.76 1.792-1.76h3.808c.96 0 1.76.768 1.76 1.76s-.8 1.76-1.76 1.76zm-3.808-2.528c-.448 0-.768.352-.768.768s.32.768.768.768h3.808c.416 0 .768-.352.768-.768s-.352-.768-.768-.768H6.784zm13.952-1.664c-.448 0-.896-.16-1.248-.512-.32-.32-.512-.768-.512-1.248s.192-.928.512-1.248l2.56-2.56c.64-.64 1.824-.64 2.496 0 .32.352.512.8.512 1.28 0 .448-.192.896-.512 1.248l-2.56 2.528c-.32.352-.768.512-1.248.512zm2.56-5.056c-.224 0-.416.064-.544.224l-2.56 2.528c-.128.16-.224.352-.224.544s.096.384.224.544c.32.288.8.288 1.088 0l2.56-2.528c.128-.16.224-.352.224-.544a.772.772 0 0 0-.224-.544.75.75 0 0 0-.544-.224zM11.84 8.992c-.448 0-.896-.16-1.248-.512L8.064 5.952a1.742 1.742 0 0 1-.512-1.248c0-.48.16-.928.512-1.28.672-.64 1.824-.64 2.496 0l2.56 2.56c.32.32.512.768.512 1.248s-.192.928-.512 1.248c-.352.352-.8.512-1.28.512zM9.312 3.936a.75.75 0 0 0-.544.224c-.16.128-.224.32-.224.544a.75.75 0 0 0 .224.544l2.528 2.528c.32.288.8.288 1.12 0 .128-.16.224-.352.224-.544s-.096-.384-.256-.544L9.856 4.16c-.128-.16-.352-.224-.544-.224zm6.976 3.424c-.96 0-1.76-.8-1.76-1.792V1.76c0-.96.8-1.76 1.76-1.76s1.792.8 1.792 1.76v3.808c0 .992-.8 1.792-1.792 1.792zm0-6.368a.779.779 0 0 0-.768.768v3.808c0 .448.352.8.768.8.448 0 .768-.352.768-.8V1.76a.758.758 0 0 0-.768-.768z"/></svg>