<svg xmlns="http://www.w3.org/2000/svg" width="32" height="32"><path d="M26.496 3.488h-1.984v1.024h1.984V3.488zm-4 0h-1.984v1.024h1.984V3.488zm-4 0h-1.984v1.024h1.984V3.488zm-4 0h-1.984v1.024h1.984V3.488zm-4 0H8.512v1.024h1.984V3.488zm-4 0H4.512v1.024h1.984V3.488zm-3.68.928c-.064.096-.096.192-.16.288V4.8h-.032v.064l-.032.032v.064H2.56v.128h-.032V5.472c0 .032 0 0 0 0v.864h.992v-.832c0-.192.064-.384.16-.544l-.864-.544zm.672 3.936h-.992v.224c0 .032 0 0 0 0V8.896l.064.064v.096h.032v.064c.128.384.384.736.704.992l.608-.8a1 1 0 0 1-.416-.8v-.16zm3.744 1.152H5.216v.992h2.016v-.992zm4 0H9.216v.992h2.016v-.992zm4 0h-2.016v.992h2.016v-.992zm4 0h-2.016v.992h2.016v-.992zm4 0h-2.016v.992h2.016v-.992zm3.616-.064a1.15 1.15 0 0 1-.352.064h-1.28v.992H26.72h-.032.256c.096-.032.192-.064.256-.096l-.352-.96zm1.664-2.528h-1.024v1.792l.96.224c0-.032 0-.032.032-.032s0 0 0-.032c0-.096 0-.16.032-.256v-.032-.032c0-.032 0 0 0 0V6.912zm-1.44-3.328l-.288.96c.32.096.576.352.672.672l.96-.288a2.058 2.058 0 0 0-.736-1.056c-.032 0-.032 0-.032-.032h-.032-.032v-.032h-.032s0-.032-.032-.032h-.064v-.032h-.032-.032-.032v-.032-.032l-.288-.096zM29.504.512h-2.016v.992h2.016V.512zm-4 0h-2.016v.992h2.016V.512zm-4 0h-2.016v.992h2.016V.512zm-4 0h-2.016v.992h2.016V.512zm-4 0h-2.016v.992h2.016V.512zm-4 0H7.488v.992h2.016V.512zm-4 0H3.488v.992h2.016V.512zm-4 0h-.032-.096-.032-.032-.032-.064-.064-.064-.032L.992.576H.96.928.896v.032H.864c-.416.128-.8.416-1.056.8l.864.544c.16-.288.48-.448.832-.448V.512zM.512 3.36H-.512v1.984H.512V3.36zm0 4H-.512v1.984H.512V7.36zm0 4H-.512v1.984H.512V11.36zm0 4H-.512v1.984H.512V15.36zm0 4H-.512v1.984H.512V19.36zm0 4H-.512v1.984H.512V23.36zm0 4H-.512v1.984H.512V27.36zm.064 3.552l-.896.416v.032h.032v.096h.032v.064c.128.224.32.416.544.608H.32v.032h.064v.032h.064v.032H.48c.224.128.48.224.736.256l.128-.992c-.32-.032-.608-.256-.768-.576zm4.64.576H3.232v1.024h1.984v-1.024zm4 0H7.232v1.024h1.984v-1.024zm4 0h-1.984v1.024h1.984v-1.024zm4 0h-1.984v1.024h1.984v-1.024zm4 0h-1.984v1.024h1.984v-1.024zm4 0h-1.984v1.024h1.984v-1.024zm4 0h-1.984v1.024h1.984v-1.024zm2.272-1.568h-.992v.576c0 .32-.128.544-.224.672l.736.64c.128-.128.192-.256.288-.416v-.032h.032v-.032-.032h.032v-.032-.032-.032h.032v-.032-.032-.032h.032v-.032-.032-.032h.032v-.032-.032-.032-.032-.032h.032v-.032-.032-.032-.032-.032.032-.032-.032-.032-.032h.032v-.032-.032-.608h-.032zm0-4h-.992v2.016h.992V25.92zm0-4h-.992v2.016h.992V21.92zm0-4h-.992v2.016h.992V17.92zm0-4h-.992v2.016h.992V13.92zm0-4h-.992v2.016h.992V9.92zm0-4h-.992v2.016h.992V5.92zm-.064-4l-.96.288c.032.096.032.192.032.288v1.44h.992v-1.44-.032-.032V2.4v-.032-.032c0-.16-.032-.288-.064-.416zM29.504.512v.992c.096 0 .192 0 .288.032l.256-.96c-.096-.032-.192-.032-.288-.064h-.032-.032-.128-.032c-.032 0 0 0 0 0h-.032zm-3.008 12h-1.984v.992h1.984v-.992zm-4 0h-1.984v.992h1.984v-.992zm-4 0h-1.984v.992h1.984v-.992zm-4 0h-1.984v.992h1.984v-.992zm-4 0H8.512v.992h1.984v-.992zm-4 0H4.512v.992h1.984v-.992zm-3.68.896c-.064.096-.096.192-.16.288v.096h-.032v.128h-.032v.096l-.032.032V15.296h.992v-.8c0-.192.064-.384.16-.544l-.896-.544zm.672 3.936h-.992v2.016h.992v-2.016zm0 4h-.992v2.016h.992v-2.016zm0 4h-.992v2.016h.992v-2.016zm.416 2.944l-.608.8.288.192h.032v.032h.064v.032c.16.064.288.096.448.128h.096v.032h.032c.032 0 0 0 0 0h.96v-.992h-.704c-.224 0-.448-.064-.608-.224zm5.312.224H7.232v.992h1.984v-.992zm4 0h-1.984v.992h1.984v-.992zm4 0h-1.984v.992h1.984v-.992zm4 0h-1.984v.992h1.984v-.992zm4 0h-1.984v.992h1.984v-.992zm2.272-.8c-.064.32-.32.608-.64.736l.352.928a1.907 1.907 0 0 0 1.248-1.44l-.96-.224zm1.024-3.776h-1.024v1.984h1.024v-1.984zm0-4h-1.024v1.984h1.024v-1.984zm0-4h-1.024v1.984h1.024v-1.984zm-1.44-3.36l-.288.96c.32.096.576.352.672.672l.96-.288a2.058 2.058 0 0 0-.736-1.056h-.032l-.032-.032h-.032V12.8h-.032-.032v-.032h-.096v-.032h-.032-.032c-.096-.096-.192-.128-.288-.16z"/></svg>