<svg xmlns="http://www.w3.org/2000/svg" width="32" height="32"><path d="M1.504 5.984C.384 5.984-.512 5.088-.512 4s.896-2.016 2.016-2.016S3.488 2.88 3.488 4s-.896 1.984-1.984 1.984zm0-2.976c-.544 0-.992.448-.992.992s.448.992.992.992.992-.448.992-.992-.448-.992-.992-.992zm28 28c-1.12 0-2.016-.896-2.016-2.016s.896-1.984 2.016-1.984 1.984.896 1.984 1.984-.896 2.016-1.984 2.016zm0-3.008c-.544 0-.992.448-.992.992s.448 1.024.992 1.024.992-.448.992-1.024-.448-.992-.992-.992zm-28 3.008c-1.12 0-2.016-.896-2.016-2.016s.896-1.984 2.016-1.984 1.984.896 1.984 1.984-.896 2.016-1.984 2.016zm0-3.008c-.544 0-.992.448-.992.992s.448 1.024.992 1.024.992-.448.992-1.024S2.048 28 1.504 28zm28-22.016c-1.12 0-2.016-.896-2.016-1.984s.896-2.016 2.016-2.016S31.488 2.88 31.488 4s-.896 1.984-1.984 1.984zm0-2.976c-.544 0-.992.448-.992.992s.448.992.992.992.992-.448.992-.992-.448-.992-.992-.992zm-.992 1.504h-2.016V3.488h2.016v1.024zm-4 0h-2.016V3.488h2.016v1.024zm-4 0h-2.016V3.488h2.016v1.024zm-4 0h-2.016V3.488h2.016v1.024zm-4 0h-2.016V3.488h2.016v1.024zm-4 0H6.496V3.488h2.016v1.024zm-4 0H2.496V3.488h2.016v1.024zm24 24.992h-2.016v-.992h2.016v.992zm-4 0h-2.016v-.992h2.016v.992zm-4 0h-2.016v-.992h2.016v.992zm-4 0h-2.016v-.992h2.016v.992zm-4 0h-2.016v-.992h2.016v.992zm-4 0H6.496v-.992h2.016v.992zm-4 0H2.496v-.992h2.016v.992zm-2.496-2.016H.992v-1.984h1.024v1.984zm0-4H.992v-1.984h1.024v1.984zm0-4H.992v-1.984h1.024v1.984zm0-4H.992v-1.984h1.024v1.984zm0-4H.992V9.504h1.024v1.984zm0-4H.992V5.504h1.024v1.984zm28 20h-1.024v-1.984h1.024v1.984zm0-4h-1.024v-1.984h1.024v1.984zm0-4h-1.024v-1.984h1.024v1.984zm0-4h-1.024v-1.984h1.024v1.984zm0-4h-1.024V9.504h1.024v1.984zm0-4h-1.024V5.504h1.024v1.984z"/></svg>